<svg width="154" height="51" viewBox="0 0 154 51" fill="none" xmlns="http://www.w3.org/2000/svg">
<path d="M29.6167 14.2833L26.6667 11.3333L10 28L26.6667 44.6666L29.6167 41.7166L15.9 28L29.6167 14.2833Z" fill="#444444"/>
<path d="M43.72 15L51.16 14.68C57.3467 14.68 60.44 16.6533 60.44 20.6C60.44 22.3333 59.9333 23.64 58.92 24.52C57.9067 25.3733 56.72 25.9467 55.36 26.24V26.52C57.2 26.6267 58.8133 27.2533 60.2 28.4C61.5867 29.52 62.28 31.2667 62.28 33.64C62.28 36.0133 61.3333 37.8933 59.44 39.28C57.5467 40.64 55.1867 41.32 52.36 41.32L46.8 41C45.5733 41 44.0667 41.1067 42.28 41.32L42 40C43.0667 39.8667 43.8267 39.7067 44.28 39.52C44.76 39.3067 45 38.88 45 38.24V17.88C45 17.24 44.7867 16.8267 44.36 16.64C44.0133 16.48 43.36 16.3333 42.4 16.2L42 16.12L42.28 14.88C42.52 14.96 43 15 43.72 15ZM48.56 28.04V37.76C48.56 38.4533 48.9467 38.96 49.72 39.28C50.4933 39.5733 51.3333 39.72 52.24 39.72C53.9467 39.72 55.3733 39.2267 56.52 38.24C57.6667 37.2267 58.24 35.7467 58.24 33.8C58.24 29.96 56.1733 28.04 52.04 28.04H48.56ZM48.56 26.36H51.08C52.7867 26.36 54.1333 25.8933 55.12 24.96C56.1333 24.0267 56.64 22.7467 56.64 21.12C56.64 19.4667 56.1467 18.24 55.16 17.44C54.2 16.64 52.8667 16.24 51.16 16.24C50.1733 16.24 49.3067 16.3333 48.56 16.52V26.36ZM68.7909 36.52C68.7909 37.2667 69.0309 37.9067 69.5109 38.44C69.9909 38.9733 70.6843 39.24 71.5909 39.24C72.4976 39.24 73.6443 38.7067 75.0309 37.64V33.08L71.9509 33.64C69.8443 33.9867 68.7909 34.9467 68.7909 36.52ZM78.2309 29.56V37.72C78.2309 38.68 78.7509 39.16 79.7909 39.16L80.8709 39.12L81.1909 40.28C79.8843 40.5733 78.4976 41.0267 77.0309 41.64C76.0443 40.9733 75.4176 40.08 75.1509 38.96C73.9509 39.9733 72.9643 40.6667 72.1909 41.04C71.4443 41.44 70.6976 41.64 69.9509 41.64C68.5909 41.64 67.4976 41.2133 66.6709 40.36C65.8709 39.5067 65.4709 38.36 65.4709 36.92C65.4709 35.4533 65.9909 34.3733 67.0309 33.68C68.0709 32.96 69.5109 32.5067 71.3509 32.32L75.0309 31.92V30.12C75.0309 28.6 74.8043 27.4533 74.3509 26.68C73.8976 25.9067 73.0709 25.52 71.8709 25.52C70.6976 25.52 69.8176 25.68 69.2309 26C69.0709 26.56 68.9909 27.7867 68.9909 29.68L67.3109 30.16C66.7243 28.2133 66.3909 26.72 66.3109 25.68C69.1909 24.3733 71.2709 23.72 72.5509 23.72C74.5243 23.72 75.9643 24.2 76.8709 25.16C77.7776 26.0933 78.2309 27.56 78.2309 29.56ZM95.0341 30.4C95.0607 30.1333 95.0741 29.8133 95.0741 29.44C95.0741 27.84 94.9274 26.7467 94.6341 26.16C93.9141 25.6533 92.8074 25.4 91.3141 25.4C88.5407 25.4 87.1541 27.6267 87.1541 32.08C87.1541 34.3733 87.6741 36.12 88.7141 37.32C89.7541 38.52 91.0741 39.12 92.6741 39.12C94.2741 39.12 95.8741 38.5733 97.4741 37.48L98.1141 38.44C95.7407 40.5733 93.5674 41.64 91.5941 41.64C89.2207 41.64 87.2874 40.8533 85.7941 39.28C84.3274 37.7067 83.5941 35.6267 83.5941 33.04C83.5941 30.4267 84.3141 28.2267 85.7541 26.44C87.2207 24.6267 89.1807 23.72 91.6341 23.72C92.4607 23.72 93.5274 23.9067 94.8341 24.28C96.1407 24.6267 97.1407 24.9467 97.8341 25.24C97.7807 25.8 97.5807 26.72 97.2341 28C96.9141 29.2533 96.6341 30.1333 96.3941 30.64L95.0341 30.4ZM112.297 40.12C113.15 40.0133 113.577 39.72 113.577 39.24C113.577 38.9733 113.43 38.68 113.137 38.36L106.777 31.64V38.36C106.777 38.7067 106.804 38.9467 106.857 39.08C106.937 39.2133 107.124 39.36 107.417 39.52L109.257 40.12L108.937 41.32C106.67 41.1067 105.297 41 104.817 41C104.337 41 103.057 41.1067 100.977 41.32L100.657 40.12C101.697 39.96 102.404 39.7867 102.777 39.6C103.177 39.3867 103.404 39.2133 103.457 39.08C103.537 38.9467 103.577 38.7067 103.577 38.36V16.12C103.577 15.3467 103.35 14.8933 102.897 14.76C102.524 14.7067 101.91 14.76 101.057 14.92L100.657 15L100.457 13.76C102.564 12.88 104.577 12.3867 106.497 12.28L107.057 13C106.87 13.8 106.777 15.0933 106.777 16.88V31.56L112.537 26.64C113.444 25.84 113.124 25.3867 111.577 25.28L111.457 24.12C112.55 24.28 113.724 24.36 114.977 24.36C116.257 24.36 117.39 24.28 118.377 24.12L118.257 25.32C117.617 25.4 117.084 25.5067 116.657 25.64C116.23 25.7467 115.724 26.0667 115.137 26.6L110.097 30.96L117.097 38.36C117.764 39.08 118.35 39.5333 118.857 39.72L120.257 40.12L119.977 41.32C118.644 41.1067 117.377 41 116.177 41C115.004 41 113.804 41.1067 112.577 41.32L112.297 40.12Z" fill="#484848"/>
</svg>
