<svg width="444" height="109" viewBox="0 0 444 109" fill="none" xmlns="http://www.w3.org/2000/svg">
<path d="M22.7002 38.4082C22.9287 38.1797 23.1572 37.8281 23.3857 37.3535C23.6494 36.791 23.9482 36.5098 24.2822 36.5098C24.7568 36.5098 25.0469 36.8965 25.1523 37.6699L26.0752 44.8945L26.1807 45.7646C26.1807 46.2393 25.9434 46.4766 25.4688 46.4766C25.1172 46.4766 24.8623 46.3975 24.7041 46.2393C24.5459 46.0635 24.2471 45.5186 23.8076 44.6045C23.0518 43.04 21.8037 41.6338 20.0635 40.3857C18.3232 39.1377 16.5742 38.5137 14.8164 38.5137C13.1113 38.5137 11.6875 39.0059 10.5449 39.9902C9.41992 40.957 8.85742 42.1787 8.85742 43.6553C8.85742 44.833 9.38477 45.8965 10.4395 46.8457C11.4941 47.7949 13.5244 48.6914 16.5303 49.5352C21.2412 50.8711 24.4316 52.5234 26.1016 54.4922C27.7539 56.4609 28.5801 58.6494 28.5801 61.0576C28.5801 63.5186 27.9736 65.584 26.7607 67.2539C25.5479 68.9238 24.0977 70.2422 22.4102 71.209C20.7227 72.1582 18.5605 72.6328 15.9238 72.6328C14.4297 72.6328 12.8828 72.4219 11.2832 72C9.68359 71.5605 8.03125 70.9102 6.32617 70.0488C5.97461 70.4531 5.67578 70.9805 5.42969 71.6309C5.14844 72.3516 4.79688 72.7119 4.375 72.7119C3.93555 72.7119 3.67188 72.2373 3.58398 71.2881L2.81934 61.7168C2.78418 61.2949 2.7666 61.0312 2.7666 60.9258C2.7666 60.416 3.03027 60.1611 3.55762 60.1611C3.94434 60.1611 4.31348 60.6006 4.66504 61.4795C5.7373 64.1162 7.19629 66.3135 9.04199 68.0713C10.8701 69.8291 13.0059 70.708 15.4492 70.708C17.5234 70.708 19.1934 70.0928 20.459 68.8623C21.7422 67.6318 22.3838 66.2344 22.3838 64.6699C22.3838 63.1055 21.7949 61.7871 20.6172 60.7148C19.4395 59.6426 17.3213 58.6143 14.2627 57.6299C11.292 56.6631 9.07715 55.7402 7.61816 54.8613C6.17676 53.9824 5.0166 52.7783 4.1377 51.249C3.27637 49.7021 2.8457 48.1377 2.8457 46.5557C2.8457 43.7959 3.90918 41.4492 6.03613 39.5156C8.18066 37.582 11.0898 36.6152 14.7637 36.6152C16.75 36.6152 19.3955 37.2129 22.7002 38.4082ZM32.377 36.9316C41.5 37.1777 48.25 37.3008 52.627 37.3008C55.9492 37.3008 59.6055 37.2041 63.5957 37.0107C65.0195 36.9404 66.1885 36.9053 67.1025 36.9053C67.4541 36.9053 68.043 36.9141 68.8691 36.9316C68.9922 37.6523 69.1504 39.1377 69.3438 41.3877L69.7393 45.5537C69.7393 46.2393 69.4492 46.582 68.8691 46.582C68.4297 46.582 68.0078 46.1602 67.6035 45.3164C66.9355 43.8926 66.0742 42.6709 65.0195 41.6514C63.9824 40.6318 62.7695 39.9551 61.3809 39.6211C60.0098 39.2871 57.7334 39.1201 54.5518 39.1201C54.2705 41.8096 54.1299 45.1758 54.1299 49.2188C54.1299 53.3496 54.209 57.3398 54.3672 61.1895C54.5254 65.0215 54.7188 67.333 54.9473 68.124C55.1758 68.915 55.5625 69.4951 56.1074 69.8643C56.6523 70.2334 57.9355 70.4883 59.957 70.6289C60.6426 70.6816 60.9854 70.9277 60.9854 71.3672C60.9854 71.8594 60.6865 72.1055 60.0889 72.1055L59.3506 72.0791L53.8926 71.9473C49.6387 71.9473 47.0547 71.9648 46.1406 72L42.8184 72.1318C42.5547 72.1318 42.0098 72.1143 41.1836 72.0791C40.7793 71.9912 40.5771 71.7715 40.5771 71.4199C40.5771 70.9102 40.9111 70.6553 41.5791 70.6553C43.1436 70.6553 44.3213 70.3301 45.1123 69.6797C45.9033 69.0293 46.3867 68.001 46.5625 66.5947C46.7559 65.1709 46.8525 62.0947 46.8525 57.3662C46.8525 49.8955 46.624 43.8135 46.167 39.1201C43.2666 39.1201 41.166 39.2432 39.8652 39.4893C38.582 39.7178 37.3428 40.3682 36.1475 41.4404C34.9521 42.4951 33.9766 43.8662 33.2207 45.5537C32.9219 46.2217 32.5791 46.5557 32.1924 46.5557C31.5947 46.5557 31.2959 46.292 31.2959 45.7646C31.2959 45.6064 31.4014 44.4551 31.6123 42.3105C31.8408 40.1484 32.0957 38.3555 32.377 36.9316ZM101.143 37.459C101.705 40.2012 102.259 42.9434 102.804 45.6855C102.804 46.1953 102.549 46.4502 102.039 46.4502C101.758 46.4502 101.441 46.2041 101.09 45.7119C99.2793 43.0752 97.6182 41.335 96.1064 40.4912C94.6123 39.6475 92.4502 39.2256 89.6201 39.2256C88.0381 39.2256 86.5088 39.3574 85.0322 39.6211C84.7158 42.7324 84.5576 46.1426 84.5576 49.8516C84.5576 50.4844 84.5752 51.5479 84.6104 53.042L86.6143 53.0684C87.8623 53.0684 88.9346 52.9014 89.8311 52.5674C90.7451 52.2158 91.5186 51.4863 92.1514 50.3789C92.7842 49.2539 93.1445 48.5332 93.2324 48.2168C93.3906 47.6543 93.6631 47.373 94.0498 47.373C94.542 47.373 94.7881 47.584 94.7881 48.0059C94.7881 48.1289 94.7705 48.2695 94.7354 48.4277C94.5244 49.5176 94.4189 52.7783 94.4189 58.21C94.4189 58.9658 94.4805 59.6514 94.6035 60.2666C94.6387 60.4424 94.6562 60.5918 94.6562 60.7148C94.6562 61.207 94.375 61.4531 93.8125 61.4531C93.4258 61.4531 93.127 60.9873 92.916 60.0557C92.5645 58.4209 91.7646 57.1816 90.5166 56.3379C89.2686 55.4766 87.2998 55.0283 84.6104 54.9932C84.5225 57.9463 84.4785 59.8887 84.4785 60.8203C84.4785 64.8281 84.54 67.21 84.6631 67.9658C84.7861 68.7217 85.2344 69.3369 86.0078 69.8115C86.7812 70.2686 88.0908 70.4971 89.9365 70.4971C96.6338 70.4971 101.037 68.3701 103.146 64.1162C103.445 63.5186 103.771 63.2197 104.122 63.2197C104.632 63.2197 104.887 63.4307 104.887 63.8525C104.887 64.1338 104.834 64.4941 104.729 64.9336L103.015 72.501L93.4697 72.4746C90.7803 72.457 88.2666 72.3955 85.9287 72.29C83.6084 72.1846 81.7891 72.1318 80.4707 72.1318C78.9941 72.1318 76.7705 72.2197 73.7998 72.3955C73.4307 72.4307 73.1582 72.4482 72.9824 72.4482C72.1562 72.4482 71.7432 72.1758 71.7432 71.6309C71.7432 71.1387 72.0771 70.8926 72.7451 70.8926C74.4502 70.8926 75.5928 70.4355 76.1729 69.5215C76.7705 68.5898 77.0693 66.7002 77.0693 63.8525L77.2275 50.2734C77.2275 45.6328 77.166 42.7852 77.043 41.7305C76.9375 40.6582 76.6387 39.9375 76.1465 39.5684C75.6543 39.1816 74.7314 38.8916 73.3779 38.6982C72.8154 38.6279 72.5342 38.3818 72.5342 37.96C72.5342 37.4326 72.8594 37.1689 73.5098 37.1689L79.8643 37.3799L101.143 37.459ZM123.607 36.2461H125.427C127.747 41.2734 131.025 49.1836 135.262 59.9766C137.213 64.9336 138.558 67.9395 139.296 68.9941C140.034 70.0312 141.203 70.6641 142.803 70.8926C143.33 70.9629 143.594 71.1914 143.594 71.5781C143.594 72.123 143.251 72.3955 142.565 72.3955C142.196 72.3955 141.238 72.334 139.691 72.2109C137.863 72.0527 136.325 71.9736 135.077 71.9736C133.864 71.9736 132.282 72.0439 130.331 72.1846C128.872 72.29 127.914 72.3428 127.457 72.3428C126.648 72.3428 126.244 72.0879 126.244 71.5781C126.244 71.1914 126.525 70.9717 127.088 70.9189C129.25 70.7256 130.331 69.8818 130.331 68.3877C130.331 67.6846 130.015 66.3926 129.382 64.5117C128.749 62.6133 128.072 60.8906 127.352 59.3438C126.209 59.3262 125.321 59.3174 124.688 59.3174C121.155 59.3174 118.404 59.3262 116.436 59.3438C114.906 63.5098 114.142 66.2695 114.142 67.623C114.142 68.5898 114.52 69.3457 115.275 69.8906C116.031 70.418 116.849 70.7256 117.728 70.8135C118.396 70.8838 118.729 71.1562 118.729 71.6309C118.729 72.1055 118.369 72.3428 117.648 72.3428C117.367 72.3428 116.629 72.2988 115.434 72.2109C113.887 72.0879 112.762 72.0264 112.059 72.0264C110.67 72.0264 109.352 72.1143 108.104 72.29C107.787 72.3428 107.523 72.3691 107.312 72.3691C106.662 72.3691 106.337 72.1055 106.337 71.5781C106.337 71.1914 106.548 70.9365 106.97 70.8135C108.024 70.5146 108.851 70.1455 109.448 69.7061C110.046 69.2666 110.688 68.4229 111.373 67.1748C112.076 65.9268 112.911 63.9316 113.878 61.1895C116.058 55.0371 119.301 46.7227 123.607 36.2461ZM121.762 45.4482L117.227 57.208L126.508 57.0762C126.016 55.7051 125.26 53.8242 124.24 51.4336C123.133 48.832 122.307 46.8369 121.762 45.4482ZM157.384 53.7803C159.317 52.1982 161.541 49.9658 164.055 47.083C166.568 44.2002 168.019 42.4688 168.405 41.8887C168.81 41.3086 169.012 40.8428 169.012 40.4912C169.012 39.5947 168.194 38.9795 166.56 38.6455C165.856 38.5049 165.505 38.2148 165.505 37.7754C165.505 37.248 165.839 36.9844 166.507 36.9844C166.735 36.9844 167.034 37.002 167.403 37.0371C168.757 37.2305 170.699 37.3271 173.23 37.3271C173.881 37.3271 174.909 37.2744 176.315 37.1689C177.651 37.0811 178.548 37.0371 179.005 37.0371C179.761 37.0371 180.139 37.3008 180.139 37.8281C180.139 38.2852 179.778 38.5576 179.058 38.6455C178.056 38.751 177.045 39.0322 176.025 39.4893C175.006 39.9287 173.784 40.7285 172.36 41.8887C170.937 43.0312 169.46 44.4287 167.931 46.0811L162.736 51.8027L164.503 51.75C166.524 51.75 168.212 52.1807 169.565 53.042C170.919 53.9033 171.877 54.9492 172.439 56.1797C173.02 57.4102 173.679 59.5723 174.417 62.666C174.979 64.9688 175.445 66.5771 175.814 67.4912C176.184 68.4053 176.755 69.1963 177.528 69.8643C178.319 70.5146 179.181 70.875 180.112 70.9453C180.903 71.0156 181.299 71.2354 181.299 71.6045C181.299 72.1318 180.921 72.3955 180.165 72.3955C179.954 72.3955 179.646 72.3779 179.242 72.3428C177.713 72.167 176.131 72.0791 174.496 72.0791C172.756 72.0791 171.024 72.1846 169.302 72.3955C168.704 71.4639 168.247 70.4707 167.931 69.416C167.632 68.3613 167.166 65.8213 166.533 61.7959C166.059 58.8252 165.399 56.8301 164.556 55.8105C163.729 54.7734 162.798 54.2549 161.761 54.2549C160.513 54.2549 159.054 55.0635 157.384 56.6807L157.331 63.4834C157.331 66.6123 157.507 68.5635 157.858 69.3369C158.21 70.1104 159.168 70.5938 160.732 70.7871C161.559 70.8926 161.972 71.1211 161.972 71.4727C161.972 72.0879 161.603 72.3955 160.864 72.3955C160.513 72.3955 159.994 72.3604 159.309 72.29C157.533 72.0967 155.424 72 152.98 72C151.398 72 149.588 72.1143 147.549 72.3428C146.846 72.4131 146.336 72.4482 146.02 72.4482C145.422 72.4482 145.123 72.1582 145.123 71.5781C145.123 71.2969 145.22 71.1035 145.413 70.998C145.606 70.8926 146.055 70.8047 146.758 70.7344C147.602 70.6289 148.208 70.4092 148.577 70.0752C148.964 69.7236 149.236 69.1436 149.395 68.335C149.57 67.5088 149.702 65.5312 149.79 62.4023C149.896 59.2734 149.948 55.8105 149.948 52.0137C149.948 48.1816 149.896 45.4746 149.79 43.8926C149.702 42.3105 149.509 41.1504 149.21 40.4121C148.911 39.6562 148.577 39.1816 148.208 38.9883C147.856 38.7773 147.127 38.6191 146.02 38.5137C145.457 38.4785 145.176 38.2324 145.176 37.7754C145.176 37.2305 145.615 36.958 146.494 36.958C147.127 36.958 148.076 37.0107 149.342 37.1162C150.906 37.2568 152.189 37.3271 153.191 37.3271C153.807 37.3271 155.556 37.248 158.438 37.0898C159.282 37.0547 159.933 37.0371 160.39 37.0371C161.058 37.0371 161.392 37.2744 161.392 37.749C161.392 38.2412 161.049 38.5225 160.363 38.5928C159.186 38.6982 158.421 38.9795 158.069 39.4365C157.718 39.8936 157.524 40.6055 157.489 41.5723C157.454 42.5215 157.419 46.5908 157.384 53.7803Z" fill="#B9B9B9"/>
<line x1="0.990971" y1="4.00002" x2="443.991" y2="2.00002" stroke="black" stroke-width="4"/>
<line x1="0.995745" y1="107.991" x2="233.996" y2="107" stroke="black" stroke-width="2"/>
</svg>
